<?xml version="1.0" encoding="utf-8"?>
<!-- Generator: Adobe Illustrator 20.1.0, SVG Export Plug-In . SVG Version: 6.00 Build 0)  -->
<svg version="1.1" id="Layer_1" xmlns="http://www.w3.org/2000/svg" xmlns:xlink="http://www.w3.org/1999/xlink" x="0px" y="0px"
	 viewBox="0 0 262 70" style="enable-background:new 0 0 262 70;" xml:space="preserve">
<style type="text/css">
	.st0{fill:#EC5A27;}
	.st1{fill:#E8E8E8;}
</style>
<path class="st0" d="M33.8,69.2c-0.4,0-0.9,0-1.3,0c0,0,0,0-0.1,0c-0.8-0.1-1.5-0.4-2.2-0.8c-6.8-3.9-13.6-7.8-20.4-11.8
	c-1.4-0.8-2.7-1.6-4.1-2.3c-1.4-0.8-2.3-2.1-2.6-3.7c0-0.1-0.1-0.2-0.1-0.3c0-9.8,0-19.7,0-29.5c0-0.1,0.1-0.2,0.1-0.3
	c0.1-0.4,0.2-0.9,0.4-1.3c0.5-1.1,1.3-1.9,2.3-2.5c4.4-2.5,8.7-5,13.1-7.5c3.8-2.2,7.7-4.4,11.5-6.6C31,2.2,31.6,2,32.3,1.8
	c0.1,0,0.3-0.1,0.4-0.1c0.3,0,0.7,0,1,0h0.1c0.8,0.1,1.5,0.4,2.2,0.8c7.3,4.2,14.5,8.4,21.8,12.6c0.9,0.5,1.9,1.1,2.8,1.6
	c1.5,0.9,2.3,2.1,2.5,3.9v0.1c0,9.8,0,19.7,0,29.5c0,0.2-0.1,0.4-0.1,0.6c-0.3,1.5-1.2,2.7-2.6,3.5c-4.6,2.6-9.1,5.3-13.7,7.9
	c-3.6,2.1-7.3,4.2-10.9,6.3c-0.5,0.3-1.1,0.5-1.7,0.7C34.1,69.2,33.9,69.2,33.8,69.2z M4.7,30.3L4.7,30.3c0,0.1,0,0.2,0,0.3
	c0,6.4,0,12.7,0,19.1c0,1.5,0.6,2.6,1.9,3.3c0.8,0.5,1.7,1,2.5,1.5c0.1,0,0.1,0.1,0.3,0.1c0-0.1-0.1-0.1-0.1-0.2
	c-0.3-0.5-0.5-1.1-0.6-1.7c-0.1-0.9-0.3-1.7-0.5-2.6c-0.3-2-0.7-3.9-1-5.9c-0.4-2.1-0.7-4.1-1.1-6.2c-0.4-2-0.7-4-1.1-6.1
	C4.9,31.4,4.8,30.8,4.7,30.3z M57,16.4c0.1,0.1,0.1,0.2,0.1,0.3c0.2,0.4,0.4,0.9,0.5,1.4c0.3,1.6,0.6,3.1,0.8,4.7
	c0.5,2.8,1,5.6,1.5,8.4s1,5.7,1.5,8.5c0.1,0.3,0.1,0.6,0.2,0.9l0,0c0-0.1,0-0.2,0-0.3c0-6.4,0-12.8,0-19.2c0-1.4-0.6-2.5-1.8-3.2
	c-0.9-0.5-1.7-1-2.6-1.5C57.2,16.5,57.1,16.5,57,16.4z M51.8,13.5L51.8,13.5c-0.1-0.1-0.2-0.2-0.3-0.2c-3.1-1.8-6.2-3.6-9.3-5.3
	c-2.4-1.4-4.8-2.8-7.2-4.1c-1.2-0.7-2.5-0.7-3.7,0c-0.9,0.5-1.7,1-2.6,1.5c-0.1,0-0.1,0.1-0.2,0.1c0.7,0,1.3,0.2,1.9,0.4
	c7,2.5,14,5.1,21,7.6C51.6,13.5,51.7,13.5,51.8,13.5z M23.4,8.4L23.4,8.4c-0.1,0-0.2,0-0.3,0.1c-5.5,3.2-11,6.3-16.5,9.5
	c-1.3,0.7-1.9,1.8-1.9,3.3c0,1,0,1.9,0,2.9c0,0.1,0,0.2,0,0.3h0.1l0.1-0.1c0.3-0.5,0.7-1,1.2-1.3c5.7-4.8,11.5-9.6,17.2-14.4
	C23.3,8.5,23.3,8.5,23.4,8.4z M42.9,62.6L42.9,62.6c0.1,0,0.2-0.1,0.3-0.1c3.7-2.1,7.4-4.3,11.1-6.4c1.8-1,3.6-2.1,5.4-3.1
	c1.2-0.7,1.8-1.8,1.9-3.2c0-1,0-2,0-3c0-0.1,0-0.1,0-0.2c-0.1,0.1-0.1,0.1-0.1,0.2c-0.3,0.5-0.7,1-1.2,1.4
	c-5.4,4.5-10.9,9.1-16.3,13.6C43.7,62,43.3,62.3,42.9,62.6z M14.4,57.5L14.4,57.5c0.1,0.1,0.2,0.2,0.3,0.2c5.5,3.2,11,6.4,16.6,9.5
	c1.3,0.7,2.6,0.7,3.8,0c0.8-0.5,1.6-0.9,2.5-1.4c0.1,0,0.2-0.1,0.3-0.2c-0.1,0-0.2,0-0.2,0c-0.6,0-1.2-0.1-1.8-0.4
	c-7-2.6-14.1-5.1-21.1-7.6C14.6,57.5,14.5,57.5,14.4,57.5z M24.6,9.4L24.6,9.4c0.1,0.1,0.2,0,0.3,0c0.3,0,0.7,0,1,0
	c1.6,0.3,3.2,0.6,4.8,0.8c2.3,0.4,4.6,0.8,6.9,1.2c2.3,0.4,4.6,0.8,7,1.2c0.3,0,0.6,0.1,0.8,0.1c-0.1-0.1-0.2-0.1-0.3-0.2
	c-3.7-1.4-7.5-2.7-11.2-4.1c-1.4-0.5-2.7-1-4.1-1.5c-1.1-0.4-2.1-0.3-3,0.4C26.1,8.2,25.4,8.8,24.6,9.4z M41.7,61.6
	c-0.5,0-0.9,0-1.4-0.1c-2.7-0.5-5.4-1-8.1-1.4c-3.5-0.6-7-1.2-10.6-1.9c-0.2,0-0.5-0.1-0.7-0.1c0.1,0.1,0.1,0.1,0.2,0.1
	c5.1,1.9,10.2,3.7,15.3,5.6c1.2,0.4,2.3,0.2,3.3-0.6c0.6-0.5,1.2-1,1.8-1.5C41.6,61.7,41.7,61.6,41.7,61.6z M46.7,57.3
	C46.7,57.4,46.8,57.4,46.7,57.3c0.1,0,0.2-0.1,0.3-0.1c3-2.5,6.1-5.1,9.1-7.6c1.1-0.9,2.2-1.9,3.4-2.8c0.9-0.8,1.3-1.7,1.1-2.9
	c-0.1-0.6-0.2-1.2-0.3-1.9c-0.1-0.3-0.1-0.6-0.2-0.9C60,41.2,60,41.2,60,41.3c-0.2,0.4-0.4,0.8-0.7,1.1c-4.1,4.9-8.2,9.8-12.4,14.7
	C46.8,57.2,46.8,57.3,46.7,57.3z M7.4,36.3L7.4,36.3c0,0.1,0,0.2,0,0.3c0.4,2.3,0.8,4.5,1.2,6.8c0.5,3.1,1.1,6.2,1.6,9.2
	c0.2,1.2,0.9,2,2,2.4c0.8,0.3,1.6,0.6,2.4,0.9c0,0,0.1,0,0.2,0c-0.4-0.4-0.6-0.9-0.7-1.4c-0.7-1.8-1.3-3.6-2-5.5
	c-1.5-4.2-3-8.3-4.6-12.5C7.5,36.5,7.5,36.4,7.4,36.3z M58.9,34.7L58.9,34.7c0-0.1,0-0.1,0-0.2c-0.2-1.1-0.4-2.2-0.6-3.3
	c-0.4-2.2-0.8-4.3-1.1-6.5c-0.4-2.1-0.7-4.2-1.1-6.2c-0.2-1.3-1-2.1-2.2-2.6c-0.7-0.3-1.4-0.5-2.2-0.8c-0.1,0-0.2,0-0.3-0.1
	c0.1,0.1,0.1,0.1,0.1,0.2c0.3,0.4,0.4,0.8,0.6,1.2c2.2,6,4.4,12,6.6,18C58.8,34.5,58.9,34.6,58.9,34.7z M19.6,13.7
	C19.6,13.7,19.5,13.7,19.6,13.7c-0.1,0-0.2,0.1-0.3,0.1c-3,2.5-6.1,5.1-9.1,7.6c-1.1,0.9-2.2,1.9-3.3,2.8C6,25,5.6,26,5.7,27.1
	C5.8,27.7,5.9,28.3,6,29c0.1,0.3,0.1,0.6,0.2,0.9c0-0.1,0.1-0.1,0.1-0.1c0.2-0.5,0.5-0.9,0.8-1.2c4.1-4.9,8.2-9.7,12.3-14.6
	C19.5,13.8,19.5,13.8,19.6,13.7z M21.7,13.6c0.5-0.1,1-0.1,1.4-0.1c5.4,0,10.8,0,16.1,0c0.1,0,0.2,0,0.3,0c-0.1-0.1-0.2-0.1-0.3-0.1
	c-1.4-0.2-2.7-0.5-4.1-0.7c-3.2-0.6-6.3-1.1-9.5-1.7c-1.1-0.2-2,0.1-2.8,1c-0.4,0.4-0.7,0.9-1.1,1.3C21.8,13.4,21.8,13.5,21.7,13.6z
	 M17.2,19L17.2,19c-0.1,0-0.2,0.1-0.2,0.2c-0.3,0.3-0.5,0.6-0.8,0.9c-2.7,3.2-5.4,6.4-8.1,9.6c-0.7,0.9-0.9,1.8-0.5,2.9
	c0.2,0.6,0.4,1.2,0.6,1.8c0,0.1,0.1,0.1,0.1,0.1C8.6,34,8.8,33.6,9,33.2c2.7-4.6,5.4-9.3,8.1-13.9C17.1,19.2,17.2,19.1,17.2,19z
	 M46.5,14.7L46.5,14.7c0.4,0.5,0.7,1.1,1,1.6c0.5,0.9,1,1.7,1.5,2.6c2.1,3.6,4.2,7.2,6.2,10.8c0.1,0.1,0.1,0.2,0.2,0.3
	c0-0.1,0-0.2,0-0.3c-1-2.9-2.1-5.7-3.1-8.6c-0.5-1.4-1-2.8-1.6-4.2c-0.4-1-1.1-1.7-2.2-1.9c-0.3,0-0.5-0.1-0.8-0.1
	C47.3,14.8,46.9,14.7,46.5,14.7z M10.8,41L10.8,41c0,0.1,0,0.2,0,0.3c1.1,3.1,2.3,6.3,3.4,9.4c0.4,1.1,0.8,2.3,1.3,3.4
	c0.4,1,1.1,1.6,2.2,1.8c0.4,0.1,0.8,0.1,1.2,0.2c0.3,0,0.6,0.1,0.9,0.2c0-0.1-0.1-0.1-0.1-0.1c-0.2-0.3-0.5-0.6-0.7-0.9
	c-2.7-4.7-5.4-9.3-8.1-14C11,41.2,10.9,41.1,10.8,41z M49.1,52C49.1,52,49.2,52,49.1,52c0.1,0,0.1-0.1,0.2-0.2
	c2.9-3.5,5.9-7,8.8-10.5c0.7-0.9,0.9-1.9,0.5-2.9c-0.2-0.5-0.4-1.1-0.6-1.6c0-0.1-0.1-0.2-0.1-0.2c-0.2,0.4-0.4,0.8-0.6,1.2
	c-2.7,4.6-5.4,9.3-8.1,13.9C49.2,51.8,49.2,51.9,49.1,52z M26.8,57.5C26.8,57.5,26.8,57.6,26.8,57.5c0,0.1,0.1,0.1,0.1,0.1
	c1.4,0.2,2.8,0.5,4.2,0.7c3,0.5,6.1,1.1,9.1,1.6c0.3,0.1,0.7,0.1,1,0.1c0.8,0,1.5-0.4,2-1c0.4-0.5,0.8-1,1.2-1.4
	c0,0,0.1-0.1,0.1-0.2c-1.1,0.2-2.1,0.1-3.1,0.1c-4.8,0-9.5,0-14.3,0C27.1,57.5,26.9,57.5,26.8,57.5z M34.5,15c-0.1,0-0.1,0-0.2,0
	c-3.9,0-7.7,0-11.6,0c-0.9,0-1.6,0.4-2.1,1.2c-0.3,0.4-0.5,0.9-0.8,1.3c0,0,0,0.1-0.1,0.1C24.7,16.8,29.6,15.9,34.5,15z M55.3,32.9
	c-0.1,0.3-0.2,0.6-0.3,0.8c-1.6,4.3-3.1,8.6-4.7,12.8c0,0.1-0.1,0.2-0.1,0.4c0.1-0.1,0.2-0.2,0.2-0.3c1.1-1.9,2.2-3.8,3.3-5.7
	c0.8-1.4,1.6-2.8,2.4-4.2c0.4-0.7,0.5-1.4,0.2-2.2C56.1,34,55.7,33.4,55.3,32.9C55.4,32.9,55.3,32.9,55.3,32.9z M11,38.2
	c0.1-0.3,0.2-0.5,0.3-0.8c1.6-4.3,3.1-8.6,4.7-12.9c0-0.1,0.1-0.2,0.1-0.3c-0.1,0.1-0.1,0.1-0.2,0.2c-0.4,0.7-0.8,1.4-1.2,2.1
	c-1.5,2.6-3,5.1-4.5,7.7c-0.5,0.9-0.5,1.7,0,2.6c0.2,0.4,0.4,0.8,0.7,1.2C10.9,38,10.9,38.1,11,38.2z M51.6,26.4
	c0-0.1-0.1-0.2-0.1-0.3c-0.5-0.9-1-1.7-1.5-2.6c-1.4-2.4-2.8-4.8-4.2-7.2c-0.5-0.9-1.3-1.3-2.3-1.3c-0.4,0-0.9,0-1.3,0
	c-0.1,0-0.2,0-0.2,0C45.2,18.8,48.4,22.6,51.6,26.4z M24.3,56c-3.2-3.8-6.4-7.6-9.6-11.4c0,0.1,0.1,0.2,0.1,0.3
	c1.1,1.9,2.2,3.8,3.3,5.7c0.8,1.4,1.6,2.7,2.4,4.1c0.5,0.9,1.3,1.4,2.3,1.3c0.4,0,0.8,0,1.3,0C24.2,56,24.3,56,24.3,56z M31.9,56
	c0.1,0,0.2,0,0.2,0c3.8,0,7.7,0,11.5,0c1,0,1.7-0.4,2.2-1.3c0.2-0.4,0.5-0.8,0.7-1.2c0-0.1,0-0.1,0.1-0.2
	C41.6,54.2,36.7,55.1,31.9,56z M16,28.9L16,28.9c-0.1,0-0.1,0.1-0.1,0.2c-0.2,0.4-0.3,0.8-0.5,1.2c-0.9,2.5-1.8,5-2.8,7.6
	c-0.3,0.9-0.2,1.6,0.4,2.3c0.2,0.3,0.4,0.5,0.7,0.8l0.1,0.1C14.6,37,15.3,33,16,28.9z M52.5,29.9c-0.2,0.8-2.1,11.9-2.1,12.1
	c0-0.1,0.1-0.2,0.1-0.2c0.4-1,0.8-2.1,1.1-3.1c0.7-1.9,1.4-3.7,2-5.6c0.3-0.8,0.2-1.5-0.4-2.2c-0.2-0.3-0.4-0.5-0.7-0.8
	C52.6,30,52.5,30,52.5,29.9z M18.9,47.1L18.9,47.1c0,0.1,0.1,0.2,0.1,0.3c1.3,1.6,2.7,3.2,4,4.8c0.6,0.8,1.3,1.5,1.9,2.3
	c0.6,0.7,1.3,0.9,2.1,0.8c0.3-0.1,0.7-0.1,1-0.2c0.1,0,0.1,0,0.2,0C25.2,52.3,22.1,49.7,18.9,47.1z M18.6,21.7
	c3.9-1.4,7.8-2.8,11.6-4.3c-0.1,0-0.1,0-0.1,0c-1.9,0.3-3.8,0.7-5.6,1c-1.3,0.2-2.5,0.4-3.8,0.7c-0.7,0.1-1.2,0.5-1.5,1.1
	C19,20.6,18.8,21.1,18.6,21.7z M36.1,53.6L36.1,53.6c0.3,0,0.6,0,0.9-0.1c1.9-0.3,3.8-0.7,5.6-1c1-0.2,2-0.4,3.1-0.5
	c0.8-0.1,1.3-0.6,1.6-1.4c0.1-0.3,0.2-0.7,0.4-1c0-0.1,0-0.1,0.1-0.2C43.8,50.8,40,52.2,36.1,53.6z M47.4,23.9L47.4,23.9
	c0-0.1-0.1-0.2-0.1-0.2c-1.3-1.5-2.5-3-3.8-4.5c-0.7-0.9-1.5-1.8-2.2-2.6c-0.4-0.5-0.9-0.7-1.4-0.8c-0.2,0-0.4,0-0.6,0
	c-0.4,0.1-0.8,0.1-1.3,0.2C41.1,18.7,44.2,21.3,47.4,23.9z M16.8,43.3c0-3.4,0-6.7,0-10.1c0,0.1-0.1,0.1-0.1,0.2
	c-0.4,2.5-0.9,5-1.3,7.5c-0.1,0.6,0,1.1,0.4,1.5C16.2,42.8,16.5,43,16.8,43.3z M31.8,53.5c-0.4-0.3-8.5-4.9-8.7-5
	c0.4,0.4,0.9,0.7,1.3,1.1c1.5,1.3,3.1,2.6,4.6,3.9c0.3,0.2,0.5,0.4,0.9,0.5C30.5,54.1,31.1,53.7,31.8,53.5z M18.2,25.3
	c2.9-1.7,5.8-3.3,8.7-5c-0.1,0-0.2,0-0.3,0c-1.1,0.4-2.2,0.8-3.3,1.2c-1.2,0.4-2.4,0.9-3.6,1.3c-0.5,0.2-0.9,0.5-1.1,1
	C18.3,24.3,18.3,24.8,18.2,25.3z M48.1,45.7L48.1,45.7c-2.9,1.6-5.8,3.3-8.7,4.9c0,0,0,0,0,0.1c0.1,0,0.2-0.1,0.3-0.1
	c1.1-0.4,2.1-0.8,3.2-1.1c1.2-0.5,2.5-0.9,3.7-1.4c0.6-0.2,1-0.5,1.2-1.1C48,46.6,48,46.2,48.1,45.7z M34.5,17.5
	c2.8,1.6,5.6,3.3,8.5,4.9c0,0,0.1,0,0.1,0.1l0,0l0,0c-0.1,0-0.1-0.1-0.2-0.1c-1-0.9-2.1-1.8-3.1-2.6c-0.8-0.7-1.7-1.4-2.5-2.1
	c-0.4-0.3-0.8-0.5-1.3-0.5C35.5,17.1,35,17.3,34.5,17.5z M49.6,27.8c0,3.2,0,6.3,0,9.5c0,0,0.1,0,0.1-0.1c0.4-2.4,0.9-4.8,1.3-7.2
	c0.1-0.6-0.1-1.1-0.5-1.6C50.1,28.2,49.9,28,49.6,27.8z M18.8,36.2C18.8,36.2,18.7,36.2,18.8,36.2c-0.1,1.2-0.1,2.3-0.1,3.5
	c0,1.1,0,2.2,0,3.2c0,0.5,0.2,0.9,0.5,1.3c0.3,0.3,0.7,0.4,1,0.7C19.8,41.9,19.3,39,18.8,36.2z M25.4,23.2L25.4,23.2
	c-0.1,0-0.2,0-0.3,0.1c-1,0.6-2,1.1-2.9,1.7c-0.8,0.5-1.7,1-2.5,1.5c-0.6,0.3-0.9,0.9-0.9,1.6c0,0.2,0,0.4,0,0.5s0,0.1,0,0.2
	C21,26.9,23.2,25,25.4,23.2z M35,51.5c-0.3-0.2-7.9-2.9-8.2-2.9c0.1,0.1,0.2,0.1,0.3,0.2c0.8,0.5,1.6,0.9,2.4,1.4
	c1,0.6,2.1,1.2,3.1,1.8c0.5,0.3,0.9,0.3,1.4,0.1C34.3,51.9,34.6,51.7,35,51.5z M41.5,47.7L41.5,47.7c0.2,0,0.3-0.1,0.5-0.2
	c1.7-1,3.4-2,5.1-3c0.4-0.2,0.6-0.5,0.8-0.9c0.1-0.4,0.1-0.8,0.1-1.3C45.8,44.1,43.6,45.9,41.5,47.7z M39.3,22.1L39.3,22.1
	c-0.1-0.1-0.2-0.2-0.2-0.2c-1.3-0.7-2.6-1.5-3.9-2.2c-0.4-0.2-0.8-0.5-1.2-0.7c-0.3-0.2-0.6-0.2-0.9-0.2c-0.4,0.1-0.8,0.4-1.2,0.6
	C34.4,20.3,36.8,21.2,39.3,22.1z M46.6,26.3c0.4,2.4,0.9,4.8,1.3,7.2l0.1-0.1c0-1.8,0-3.6,0-5.4c0-0.1,0-0.2,0-0.3
	C47.8,26.9,47.3,26.6,46.6,26.3z M36.4,22.6L36.4,22.6C36.4,22.6,36.4,22.5,36.4,22.6c-1.7-0.7-3.3-1.3-4.9-1.8
	c-0.6-0.2-1.4,0.1-1.8,0.7C32,21.8,34.2,22.2,36.4,22.6z M20.8,39.2L20.8,39.2C20.8,39.3,20.8,39.3,20.8,39.2c0.3,1.7,0.6,3.4,0.9,5
	c0.1,0.7,0.5,1.2,1.5,1.4C22.3,43.5,21.6,41.3,20.8,39.2z M43.8,25.2C43.8,25.2,43.8,25.3,43.8,25.2c0.7,2.2,1.5,4.3,2.3,6.4
	c0-0.3-0.1-0.6-0.1-0.9c-0.2-1.4-0.5-2.8-0.7-4.2c-0.1-0.5-0.3-0.8-0.7-1C44.3,25.4,44.1,25.3,43.8,25.2z M43.1,44.4
	C43.1,44.5,43.1,44.5,43.1,44.4c0.1,0,0.2-0.1,0.2-0.1c0.7-0.6,1.4-1.2,2.1-1.7c0.6-0.5,1.1-1,1.7-1.4c0.4-0.3,0.6-0.7,0.5-1.2
	c0-0.2-0.1-0.5-0.1-0.8C46,41,44.5,42.7,43.1,44.4z M37.2,49.4c-2.3-0.4-4.5-0.8-6.8-1.2c0,0.1,0.1,0.1,0.1,0.1
	c1.6,0.6,3.2,1.1,4.7,1.7c0.1,0,0.3,0.1,0.4,0.1C36.3,50.2,36.7,49.8,37.2,49.4z M19.4,31.6L19.4,31.6c1.5-1.7,2.9-3.4,4.4-5.1l0,0
	c-0.1,0.1-0.1,0.1-0.2,0.2c-0.5,0.4-1,0.9-1.6,1.3c-0.7,0.6-1.4,1.2-2.2,1.8c-0.4,0.3-0.6,0.7-0.5,1.3
	C19.3,31.2,19.4,31.4,19.4,31.6z M28.1,23.5c1.7,0,3.4,0,5.2,0h-0.1c-1.2-0.2-2.5-0.4-3.7-0.6C28.9,22.7,28.5,22.9,28.1,23.5z
	 M41.2,24.9C41.2,24.9,41.1,24.9,41.2,24.9c0.8,1.5,1.7,3,2.5,4.5c0-0.1,0-0.1,0-0.1c-0.4-1.2-0.9-2.4-1.3-3.6
	c-0.1-0.4-0.4-0.6-0.8-0.7C41.5,24.9,41.3,24.9,41.2,24.9z M46.5,36.8L46.5,36.8c-0.9,1.5-1.8,2.9-2.7,4.5c0.1,0,0.1,0,0.1-0.1
	c0.8-1,1.7-2,2.5-2.9c0.2-0.2,0.3-0.5,0.2-0.8C46.6,37.2,46.6,37,46.5,36.8z M25.7,46c-0.2-0.5-2.4-4.3-2.6-4.4c0,0.1,0,0.1,0.1,0.2
	c0.4,1.1,0.8,2.2,1.2,3.3C24.7,45.7,25,45.9,25.7,46z M20.4,34.1c0.9-1.5,1.7-3,2.6-4.4c-0.1,0-0.2,0.1-0.2,0.1
	c-0.7,0.9-1.5,1.8-2.2,2.6C20.1,32.9,20.1,33.5,20.4,34.1z M33.6,47.3C33.6,47.4,33.6,47.4,33.6,47.3c1.3,0.3,2.6,0.5,3.9,0.7
	c0.5,0.1,1-0.2,1.2-0.7C37,47.3,35.3,47.3,33.6,47.3z M27,25.6c0.3,0,3.4-0.5,3.6-0.6c-0.3,0-0.6,0-0.8,0c-0.6,0-1.2,0-1.8,0
	C27.5,24.9,27.2,25.1,27,25.6z M39.9,45.2c-1.2,0.2-2.4,0.4-3.6,0.6c0.2,0.1,0.4,0.1,0.6,0.1c0.7,0,1.4,0,2.1,0
	C39.4,45.9,39.7,45.7,39.9,45.2z M41.1,27.7L41.1,27.7c0-0.1,0-0.2-0.1-0.3c-0.3-0.6-0.7-1.2-1-1.8c-0.1-0.1-0.1-0.2-0.2-0.3
	c-0.2-0.3-0.6-0.5-1-0.4C39.5,25.9,40.3,26.8,41.1,27.7z M43.9,38.2C44,38.2,44,38.2,43.9,38.2c0.1-0.1,0.1-0.1,0.2-0.2
	c0.4-0.7,0.8-1.3,1.2-2c0.2-0.3,0.2-0.9-0.1-1.2C44.8,35.9,44.4,37,43.9,38.2z M22.9,32.7L22.9,32.7c-0.2,0.3-0.4,0.6-0.6,0.9
	c-0.3,0.5-0.5,0.9-0.8,1.4c-0.2,0.4-0.2,0.8,0.1,1.1C22.1,34.9,22.5,33.8,22.9,32.7z M25.8,43.2L25.8,43.2c0,0.1,0,0.2,0.1,0.3
	c0.3,0.6,0.7,1.2,1,1.7c0.1,0.1,0.1,0.2,0.2,0.3c0.2,0.3,0.6,0.5,1,0.4C27.4,45,26.6,44.1,25.8,43.2z M28.5,44
	C28.4,44,28.4,44,28.5,44c0.3,0.5,0.7,0.9,1.1,1.3c0.2,0.2,0.4,0.2,0.7,0.2C29.6,45,29,44.5,28.5,44z M28.5,26.8L28.5,26.8
	c-0.6,0-1.1,0.1-1.6,0.2c-0.3,0.1-0.5,0.2-0.6,0.6C27.1,27.3,27.8,27.1,28.5,26.8z M38.4,44C38.4,44,38.4,44.1,38.4,44
	c0.6,0,1.1-0.1,1.7-0.3c0.2-0.1,0.4-0.2,0.5-0.5C39.8,43.5,39.1,43.8,38.4,44z M23.1,37.7c0.1-0.8,0.3-1.5,0.4-2.3
	c-0.2,0.5-0.4,1-0.6,1.5C22.8,37.2,22.8,37.4,23.1,37.7z M43.4,35.4L43.4,35.4c0.2-0.5,0.4-1,0.6-1.5c0-0.1,0-0.3,0-0.4
	c0-0.1-0.1-0.2-0.2-0.3C43.7,34,43.5,34.7,43.4,35.4z M36.7,25.3C36.7,25.4,36.7,25.4,36.7,25.3c0.5,0.5,1.1,1,1.7,1.5l0,0
	c-0.2-0.2-0.4-0.4-0.5-0.7c-0.2-0.2-0.3-0.4-0.5-0.5C37.2,25.4,37,25.3,36.7,25.3z M24.5,37.8c-0.2,0.4-0.2,0.8,0,1
	C24.5,38.5,24.5,38.1,24.5,37.8z M42.3,33.1c0.1-0.3,0.3-0.7,0-1C42.3,32.4,42.3,32.7,42.3,33.1z M26.9,28.9L26.9,28.9
	C26.6,29,26.2,29,26,29.4c0,0,0,0,0,0.1C26.3,29.3,26.6,29.1,26.9,28.9z M31.1,44.3c0.4,0.5,0.6,0.6,0.9,0.5
	C31.7,44.6,31.4,44.5,31.1,44.3z M40.9,41.5C40.8,41.5,40.8,41.4,40.9,41.5c-0.3,0.1-0.6,0.3-0.9,0.4c0,0,0,0,0,0.1
	C40.3,41.8,40.7,41.8,40.9,41.5z M33,43.7c0.3,0.3,0.5,0.3,0.8,0.1C33.5,43.8,33.3,43.8,33,43.7z M34.9,26c0.4,0.3,0.7,0.4,0.8,0.4
	C35.5,26.3,35.3,26,34.9,26z"/>
<g>
	<path class="st1" d="M96.2,17.8c1.1,0.2,2.3,0.3,3.4,0.6c1.9,0.6,3.5,1.5,4.5,3.2c0.5,0.8,0.8,1.7,0.8,2.6c0,1.7,0,3.5,0,5.2
		c0,0.4-0.1,0.5-0.5,0.5c-1.5,0-3.1,0-4.6,0c-0.4,0-0.5-0.1-0.5-0.5c0-1.1,0-2.1,0-3.2c0-1.4-0.7-2.4-2-2.8c-1.8-0.6-3.5-0.6-5.3,0
		c-1.1,0.4-1.8,1.3-1.8,2.5c0,5.6,0,11.2,0,16.8c0,1.6,1,2.6,2.9,2.9c1.4,0.2,2.8,0.2,4.2-0.2c1.4-0.5,2.1-1.5,2.1-2.9
		c0-1.2,0-2.3,0-3.5c0-0.4-0.1-0.5-0.5-0.5c-1.2,0-2.4,0-3.6,0c-0.4,0-0.5-0.1-0.5-0.5c0-1.2,0-2.5,0-3.7c0-0.4,0.1-0.5,0.5-0.5
		c3,0,6.1,0,9.1,0c0.4,0,0.5,0.1,0.5,0.5c0,5.3,0,10.5,0,15.8c0,0.4-0.1,0.5-0.5,0.5c-0.7,0-1.4,0-2.1,0c-0.3,0-0.5-0.1-0.6-0.4
		c-0.2-0.4-0.4-0.8-0.6-1.2c-0.1-0.2-0.2-0.3-0.4-0.1c-1.6,1.3-3.4,1.8-5.4,2c-0.1,0-0.1,0-0.2,0.1c-0.8,0-1.7,0-2.5,0
		c-1.1-0.2-2.2-0.3-3.3-0.7c-2.2-0.8-4-2.1-4.7-4.5c-0.1-0.3,0-0.6-0.2-0.9c0-7,0-13.9,0-20.9c0.2-1.1,0.6-2.1,1.3-3
		c1.4-1.6,3.3-2.4,5.3-2.8c0.8-0.2,1.6-0.2,2.4-0.4C94.5,17.8,95.3,17.8,96.2,17.8z M101.9,44.8c0,0.9,0,1.6,0,2.2
		c0,0.2-0.2,0.5,0.3,0.6c0.4,0,0.3-0.3,0.3-0.5c0-3.6,0-7.1,0-10.7c0-0.4-0.1-0.6-0.5-0.6c-1.4,0-2.8,0-4.2,0
		c-0.2,0-0.5-0.1-0.5,0.3c0,0.4,0.3,0.3,0.5,0.3c1.1,0,2.3,0,3.4,0c0.4,0,0.6,0.1,0.6,0.6c0,1.5,0,3.1,0,4.6c0,3.1-2.2,5.7-5.2,6.3
		c-1.9,0.3-3.8,0.2-5.6-0.3c-2.2-0.7-3.3-2.2-3.3-4.5c0-5.8,0-11.6,0-17.4c0-2.1,1-3.6,3-4.3c2.6-0.9,5.2-0.9,7.8,0
		c2.2,0.7,3.2,2.2,3.3,4.6c0,0.5,0,1,0,1.5c0,0.2,0,0.4,0.3,0.4s0.3-0.2,0.3-0.4c0-0.5,0-1,0-1.5c0-2.8-1.4-4.6-4.1-5.4
		c-2.4-0.7-4.7-0.7-7.1,0c-2.8,0.8-4.2,2.6-4.2,5.5c0,2.3,0,4.6,0,7c0,3.5,0,6.9,0,10.4c0,2.3,1.3,3.9,3.4,4.7
		c1.8,0.7,3.6,0.7,5.4,0.6c2-0.2,3.6-0.9,4.9-2.4C101.2,45.8,101.5,45.4,101.9,44.8z"/>
	<path class="st1" d="M192.5,17.8c0.8,0.2,1.7,0.2,2.5,0.4c1.9,0.5,3.6,1.3,4.8,2.9c0.9,1.1,1.3,2.4,1.3,3.7c0,1.5,0,3,0,4.5
		c0,0.4-0.1,0.5-0.5,0.5c-1.1,0-2.3,0-3.4,0c-0.4,0-0.5-0.1-0.5-0.5c0-0.9,0-1.7,0-2.6c0-2.9-1.3-4.4-4.2-4.6
		c-1.2-0.1-2.3-0.1-3.5,0.3c-1.5,0.5-2.4,1.6-2.5,3.2c-0.1,1.3,0,2.6,0,3.9c0,4.2,0,8.5,0,12.7c0,0.4,0,0.8,0,1.1
		c0.1,1.5,0.9,2.6,2.3,3c1.7,0.5,3.4,0.6,5,0.1c1.8-0.5,2.7-1.7,2.8-3.6c0.1-1.2,0-2.5,0-3.7c0-0.4,0.1-0.6,0.6-0.6
		c1.1,0,2.3,0,3.4,0c0.2,0,0.5-0.1,0.5,0.3c0,1.9,0.1,3.9-0.1,5.8c-0.3,2.3-1.5,3.8-3.5,4.9c-1.3,0.7-2.7,1.1-4.2,1.2
		c-0.2,0-0.4,0-0.6,0.1c-0.9,0-1.7,0-2.6,0c-1.1-0.2-2.2-0.3-3.2-0.6c-2.1-0.7-3.8-1.8-4.6-3.9c-0.4-0.9-0.5-2-0.5-3
		c0-5.9,0.1-11.9,0-17.8c-0.1-4,2.1-6.1,5.5-7.2c0.9-0.3,1.8-0.4,2.7-0.5c0.2,0,0.4,0,0.6-0.1C191.2,17.8,191.9,17.8,192.5,17.8z"/>
	<path class="st1" d="M215.1,51c-1.1-0.2-2.3-0.1-3.4-0.4c-2.1-0.6-3.9-1.4-5-3.4c-0.4-0.8-0.6-1.7-0.6-2.6c0-5.7,0-11.4,0-17.1
		c0-2.7,1.5-4.5,4-5.4c3.3-1.3,6.7-1.2,10.1-0.1c2.4,0.8,4,2.9,4,5.4c0.1,5.7,0,11.4,0,17.2c0,0.4,0,0.8-0.1,1.2
		c-0.5,2.3-2.1,3.6-4.1,4.4c-1.3,0.5-2.7,0.7-4.1,0.8c-0.2,0-0.4,0-0.6,0.1C215.2,51,215.2,51,215.1,51z M219.9,35.5
		c0-2.1,0.1-4.7-0.1-7.2c-0.1-1.4-0.8-2.4-2.2-2.8c-1.7-0.5-3.4-0.5-5,0c-1.1,0.4-1.7,1.1-2,2.3c-0.1,0.5-0.1,0.9-0.1,1.4
		c0,4.1,0,8.2,0,12.4c0,0.7,0,1.4,0,2.1c0.1,1.5,0.7,2.6,2.3,3.1c1.2,0.4,2.5,0.4,3.7,0.2c2.5-0.4,3.3-1.4,3.3-3.9
		C219.9,40.7,219.9,38.4,219.9,35.5z"/>
	<path class="st1" d="M160.3,36c0-4.6,0-9.3,0-13.9c0-0.5,0.1-0.6,0.6-0.6c4.9,0,9.9,0,14.8,0c0.5,0,0.6,0.2,0.6,0.6
		c0,1.1,0,2.2,0,3.3c0,0.5-0.2,0.6-0.6,0.6c-3.1,0-6.2,0-9.3,0c-0.6,0-0.7,0.2-0.7,0.7c0,2,0,4,0,6c0,0.5,0.2,0.6,0.6,0.6
		c2.3,0,4.6,0,6.9,0c0.5,0,0.7,0.1,0.7,0.7c0,1.1,0,2.1,0,3.2c0,0.5-0.1,0.7-0.6,0.7c-2.3,0-4.6,0-7,0c-0.5,0-0.6,0.1-0.6,0.6
		c0,2.3,0,4.6,0,7c0,0.5,0.1,0.6,0.6,0.5c3.1,0,6.2,0,9.3,0c0.5,0,0.7,0.2,0.7,0.7c0,1.1,0,2.2,0,3.3c0,0.5-0.1,0.6-0.6,0.6
		c-5,0-9.9,0-14.9,0c-0.4,0-0.6-0.1-0.6-0.6C160.3,45.3,160.3,40.7,160.3,36z M162.7,36c0,4,0,7.9,0,11.9c0,0.5,0.1,0.7,0.7,0.7
		c3.5,0,6.9,0,10.4,0c0.1,0,0.3,0,0.4,0c0.2,0,0.2-0.2,0.2-0.3c0-0.2-0.1-0.3-0.2-0.3c-0.2,0-0.3,0-0.5,0c-3.2,0-6.5,0-9.7,0
		c-0.5,0-0.6-0.1-0.6-0.6c0-3.6,0-7.2,0-10.8c0-0.4,0.1-0.6,0.6-0.6c2.6,0,5.3,0,7.9,0c0.3,0,0.6,0.1,0.6-0.4s-0.4-0.3-0.6-0.3
		c-2.6,0-5.2,0-7.8,0c-0.5,0-0.7-0.2-0.7-0.7c0-3.3,0-6.6,0-9.9c0-0.5,0.1-0.7,0.7-0.7c2.7,0,5.5,0,8.2,0c0.6,0,1.2,0,1.8,0
		c0.2,0,0.4,0,0.4-0.3s-0.2-0.3-0.4-0.3c-0.1,0-0.2,0-0.3,0c-3.5,0-6.9,0-10.4,0c-0.5,0-0.6,0.1-0.6,0.6
		C162.7,28.1,162.7,32.1,162.7,36z"/>
	<path class="st1" d="M146.3,50.6c-2.9,0-5.7,0-8.6,0c-0.5,0-0.7-0.1-0.6-0.6c0,0,0,0,0-0.1c-0.3-2.3,0.5-4.2,1.6-6.1
		c3.2-5.6,6.3-11.4,9.4-17c0.3-0.6,0.3-0.6-0.4-0.6c-3.1,0-6.2,0-9.3,0c-0.5,0-0.7-0.1-0.7-0.7c0-1.1,0-2.2,0-3.3
		c0-0.4,0.1-0.6,0.6-0.6c5.3,0,10.6,0,15.9,0c0.4,0,0.6,0.1,0.5,0.5c0,1,0,2,0,3c0,0.3-0.1,0.6-0.3,0.9c-3.5,6.5-7.1,13-10.6,19.5
		c-0.3,0.6-0.3,0.6,0.4,0.6c3.5,0,7,0,10.5,0c0.5,0,0.7,0.1,0.7,0.7c0,1.1,0,2.2,0,3.3c0,0.5-0.1,0.6-0.6,0.6
		C152.1,50.5,149.2,50.6,146.3,50.6z M146.3,48.5c2.2,0,4.5,0,6.7,0c0.1,0,0.2,0,0.3,0c0.2,0,0.4,0,0.4-0.3s-0.2-0.3-0.4-0.3
		c-0.1,0-0.3,0-0.4,0c-3.9,0-7.9,0-11.8,0c-1.1,0-1.1,0-0.6-1c4.2-7.7,8.5-15.3,12.7-23c0.3-0.6,0.3-0.6-0.4-0.6
		c-4.1,0-8.3,0-12.4,0c-0.1,0-0.3,0-0.4,0c-0.2,0-0.2,0.2-0.2,0.4c0,0.2,0.1,0.3,0.3,0.3c0.1,0,0.3,0,0.4,0c3.8,0,7.5,0,11.3,0
		c0.6,0,0.7,0.1,0.4,0.6c-1.4,2.5-2.8,5-4.2,7.5c-2.9,5.2-5.8,10.5-8.7,15.7c-0.3,0.6-0.3,0.6,0.4,0.6
		C141.8,48.5,144.1,48.5,146.3,48.5z"/>
	<path class="st1" d="M121.3,21.5c0.9,0,1.7,0,2.6,0c0.5,0,0.7,0.2,0.9,0.7c1.1,3.9,2.2,7.8,3.4,11.6c1.5,5.3,3.1,10.6,4.6,16
		c0.2,0.8,0.2,0.8-0.6,0.8c-1.4,0-2.8,0-4.2,0c-0.4,0-0.6-0.1-0.7-0.5c-0.4-1.7-0.9-3.3-1.3-5c-0.1-0.4-0.3-0.5-0.7-0.5
		c-2.7,0-5.4,0-8.1,0c-0.4,0-0.5,0.1-0.6,0.5c-0.4,1.6-0.9,3.3-1.3,4.9c-0.1,0.4-0.3,0.6-0.7,0.6c-1.4,0-2.9,0-4.3,0
		c-0.5,0-0.6-0.1-0.5-0.6c1.2-4.2,2.4-8.4,3.7-12.7c1.5-5,2.9-10.1,4.3-15.1c0.1-0.5,0.3-0.7,0.9-0.6
		C119.6,21.6,120.4,21.5,121.3,21.5z M129.8,48.2c0-0.1-0.1-0.2-0.1-0.3c-0.2-0.8-0.5-1.6-0.7-2.4c-2-7.1-4-14.3-6-21.4
		c-0.1-0.4-0.3-0.6-0.7-0.6c-0.6,0-1.3,0.1-1.9,0s-0.9,0.2-1,0.8c-1.8,6.4-3.6,12.7-5.3,19.1c-0.4,1.6-0.9,3.2-1.3,4.7
		c0,0.2-0.2,0.4,0.1,0.4c0.2,0.1,0.4,0,0.5-0.3c0-0.1,0.1-0.2,0.1-0.3c0.5-1.7,1-3.3,1.4-5c0.1-0.4,0.3-0.5,0.7-0.5
		c3.8,0,7.7,0,11.5,0c0.4,0,0.6,0.1,0.7,0.5c0.2,0.9,0.5,1.8,0.7,2.7c0.2,0.8,0.5,1.6,0.7,2.5c0.1,0.3,0.2,0.3,0.5,0.3
		C129.8,48.5,129.9,48.4,129.8,48.2z"/>
	<path class="st1" d="M253.3,41c0.2-0.1,0.1-0.3,0.1-0.4c0-6.1,0-12.3,0-18.4c0-0.5,0.1-0.7,0.7-0.7c0.9,0.1,1.9,0,2.9,0
		c0.5,0,0.6,0.1,0.6,0.6c0,3.8,0,7.5,0,11.3c0,5.5,0,10.9,0,16.4c0,0.5-0.1,0.7-0.7,0.7c-0.8,0-1.6,0-2.4,0c-0.4,0-0.6-0.1-0.8-0.5
		c-3.5-6.1-6.9-12.1-10.4-18.1c-0.1-0.2-0.3-0.5-0.5-0.8c-0.1,0.5,0,0.9,0,1.3c0,5.8,0,11.6,0,17.5c0,0.5-0.1,0.7-0.6,0.6
		c-0.9,0-1.9,0-2.8,0c-0.5,0-0.7-0.1-0.7-0.7c0-6.9,0-13.7,0-20.6c0-2.4,0-4.8,0-7.2c0-0.4,0.1-0.6,0.5-0.5c0.8,0,1.6,0,2.4,0
		c0.5,0,0.7,0.2,1,0.6c2.9,5.1,5.8,10.2,8.7,15.3C251.9,38.6,252.6,39.8,253.3,41z"/>
	<path class="st1" d="M229.2,36.1c0-4.6,0-9.3,0-13.9c0-0.5,0.1-0.7,0.7-0.7c1,0,2.1,0,3.1,0c0.5,0,0.7,0.1,0.7,0.7
		c0,5.8,0,11.6,0,17.4c0,3.5,0,6.9,0,10.4c0,0.5-0.1,0.6-0.6,0.6c-1.1,0-2.2,0-3.3,0c-0.5,0-0.6-0.1-0.6-0.6
		C229.2,45.3,229.2,40.7,229.2,36.1z"/>
	<path class="st1" d="M121.2,41.8c-1.8,0-3.7,0-5.5,0c-0.4,0-0.5-0.1-0.4-0.5c1.6-5.6,3.1-11.1,4.7-16.7c0.1-0.4,0.3-0.6,0.7-0.6
		c1.7-0.1,1.7-0.1,2.2,1.6c1.5,5.2,2.9,10.4,4.3,15.5c0.1,0.5,0,0.7-0.5,0.7C124.9,41.8,123,41.8,121.2,41.8z M121.3,27.7
		c-0.1,0.1-0.1,0.1-0.1,0.1c-1,3.8-2,7.6-3.1,11.5c-0.1,0.5,0.1,0.5,0.5,0.5c1.8,0,3.6,0,5.4,0c0.5,0,0.5-0.2,0.4-0.6
		c-0.8-3-1.6-6.1-2.5-9.1C121.7,29.3,121.5,28.5,121.3,27.7z"/>
</g>
</svg>
